#!OML:ASF F:\VICON\USERDATA\INSTALL\rory3\rory3.ASF
:FULLY-SPECIFIED
:DEGREES
1389
root -0.781306 17.7522 -7.82234 -0.430932 22.027 -1.75047
lowerback 2.76445 -1.70938 -6.80633
upperback 1.23458 -2.4412 -1.77427
thorax -0.0688985 -1.23644 2.04452
lowerneck -22.4687 -4.67876 -10.354
upperneck 27.3907 -3.85878 3.43987
head 13.2691 -2.30331 2.39595
rclavicle -5.87409e-014 -1.27222e-014
rhumerus 19.7434 -29.5052 -32.0094
rradius 42.4266
rwrist 24.4628
rhand -55.8475 -11.6048
rfingers 7.12502
rthumb -28.1904 -39.5049
lclavicle -5.87409e-014 -1.27222e-014
lhumerus -18.4926 7.66703 63.7381
lradius 48.9366
lwrist -15.6974
lhand -19.7476 29.2912
lfingers 7.12502
lthumb 6.5835 59.1689
rfemur -20.9405 4.09301 14.4643
rtibia 22.4364
rfoot -2.77531 -11.7294
rtoes 16.3126
lfemur -4.2045 3.72346 -22.2723
ltibia 26.1092
lfoot -17.7904 11.0606
ltoes -9.83071
1390
root -0.785006 17.7518 -7.81783 -0.329622 22.2328 -1.68377
lowerback 2.85156 -1.6632 -6.9581
upperback 1.20053 -2.39283 -1.92028
thorax -0.156782 -1.20849 1.98133
lowerneck -22.2334 -4.7429 -10.2296
upperneck 27.28 -4.01752 3.41488
head 13.1838 -2.36263 2.33738
rclavicle 2.05742e-014 -2.54444e-014
rhumerus 19.5962 -30.7461 -31.1893
rradius 41.8068
rwrist 23.6154
rhand -55.8579 -12.5912
rfingers 7.12502
rthumb -28.2004 -40.4896
lclavicle 2.05742e-014 -2.54444e-014
lhumerus -19.7755 8.91362 63.1576
lradius 48.1984
lwrist -15.6314
lhand -19.3112 30.7766
lfingers 7.12502
lthumb 7.00474 60.6407
rfemur -20.9969 3.76983 14.4142
rtibia 22.4723
rfoot -2.72922 -11.647
rtoes 16.0931
lfemur -4.30352 3.58169 -22.3296
ltibia 26.1259
lfoot -17.7622 11.0074
ltoes -10.0777
1391
root -0.787197 17.7543 -7.81009 -0.306131 22.3602 -1.75022
lowerback 2.84899 -1.64247 -6.9846
upperback 1.25157 -2.36241 -2.01426
thorax -0.108025 -1.19527 1.89752
lowerneck -22.2125 -4.78089 -10.2741
upperneck 27.2646 -4.10968 3.57647
head 13.1852 -2.38513 2.39189
rclavicle -1.98785e-016 -2.06736e-014
rhumerus 19.8212 -32.0302 -30.5938
rradius 41.1309
rwrist 23.0748
rhand -55.6701 -13.2993
rfingers 7.12502
rthumb -28.0209 -41.2273
lclavicle -1.98785e-016 -2.06736e-014
lhumerus -20.923 10.0843 62.5011
lradius 47.4414
lwrist -15.5674
lhand -19.1238 29.8637
lfingers 7.12502
lthumb 7.18567 59.7217
rfemur -21.0184 3.64647 14.4886
rtibia 22.4991
rfoot -2.76767 -11.6246
rtoes 16.0424
lfemur -4.3556 3.53284 -22.2409
ltibia 26.1463
lfoot -17.7372 10.9368
ltoes -10.2743
1392
root -0.790392 17.756 -7.80442 -0.367026 22.5112 -1.83821
lowerback 2.93949 -1.63655 -6.98635
upperback 1.29479 -2.36005 -2.07224
thorax -0.116628 -1.19427 1.84099
lowerneck -22.1163 -4.78411 -10.4126
upperneck 27.2739 -4.11848 3.71809
head 13.1775 -2.38498 2.47053
rclavicle -1.03368e-014 -1.90833e-014
rhumerus 20.3654 -33.4234 -30.2263
rradius 40.3956
rwrist 22.9008
rhand -55.0957 -13.1575
rfingers 7.12502
rthumb -27.4717 -41.1739
lclavicle -1.03368e-014 -1.90833e-014
lhumerus -22.1232 11.3153 61.8243
lradius 46.6583
lwrist -15.8162
lhand -19.3538 28.2734
lfingers 7.12502
lthumb 6.96364 58.1389
rfemur -20.9104 3.54857 14.5866
rtibia 22.4468
rfoot -2.80013 -11.6409
rtoes 16.4569
lfemur -4.35143 3.43086 -22.1249
ltibia 26.2181
lfoot -17.7598 10.8428
ltoes -10.078
1393
root -0.794172 17.7561 -7.80027 -0.510197 22.666 -1.96668
lowerback 3.14997 -1.6273 -6.95996
upperback 1.27554 -2.36743 -2.09934
thorax -0.256149 -1.19307 1.80636
lowerneck -21.7409 -4.7148 -10.4355
upperneck 27.1559 -4.03837 3.67384
head 13.0453 -2.35936 2.47399
rclavicle -3.61788e-014 3.18055e-015
rhumerus 20.9192 -34.6155 -29.8481
rradius 39.7617
rwrist 22.6894
rhand -54.4821 -13.2637
rfingers 7.12502
rthumb -26.8847 -41.3719
lclavicle -3.61788e-014 3.18055e-015
lhumerus -23.4925 12.3448 61.1303
lradius 45.9489
lwrist -15.8962
lhand -19.6482 28.4847
lfingers 7.12502
lthumb 6.67943 58.3594
rfemur -20.7077 3.42165 14.7303
rtibia 22.3123
rfoot -2.76722 -11.7397
rtoes 16.5412
lfemur -4.30851 3.40237 -21.9605
ltibia 26.3462
lfoot -17.8652 10.7563
ltoes -10.1619
1394
root -0.798905 17.7574 -7.79649 -0.696658 22.7605 -2.30246
lowerback 3.29826 -1.6142 -6.74458
upperback 1.30032 -2.35582 -2.08149
thorax -0.322976 -1.18536 1.70978
lowerneck -21.5891 -4.6805 -10.2896
upperneck 27.1304 -4.00454 3.50101
head 12.993 -2.35353 2.38924
rclavicle 4.27387e-014 -2.54444e-014
rhumerus 21.6971 -35.832 -29.6473
rradius 39.1588
rwrist 22.3541
rhand -53.9696 -13.4508
rfingers 7.12502
rthumb -26.3942 -41.6336
lclavicle 4.27387e-014 -2.54444e-014
lhumerus -24.6828 13.1928 60.4037
lradius 45.1344
lwrist -15.8739
lhand -19.686 29.3985
lfingers 7.12502
lthumb 6.64294 59.2743
rfemur -20.5582 3.40199 15.079
rtibia 22.1758
rfoot -2.82463 -11.8896
rtoes 17.0553
lfemur -4.32546 3.36392 -21.5911
ltibia 26.4903
lfoot -17.9224 10.7243
ltoes -10.4106
1395
root -0.80348 17.7583 -7.79356 -0.825237 22.8392 -2.62637
lowerback 3.36208 -1.57056 -6.52049
upperback 1.29212 -2.29734 -2.09093
thorax -0.381512 -1.15387 1.5767
lowerneck -21.3581 -4.6774 -10.1864
upperneck 27.1501 -4.04742 3.44725
head 12.9532 -2.37107 2.3462
rclavicle 1.59028e-014 1.43125e-014
rhumerus 22.4971 -37.1131 -29.5876
rradius 38.6677
rwrist 22.2554
rhand -53.6877 -13.6399
rfingers 7.12502
rthumb -26.1244 -41.8628
lclavicle 1.59028e-014 1.43125e-014
lhumerus -25.7997 13.7657 59.6875
lradius 44.3016
lwrist -15.8506
lhand -19.6554 29.5683
lfingers 7.12502
lthumb 6.67253 59.4432
rfemur -20.4814 3.4322 15.4094
rtibia 22.0447
rfoot -2.84538 -12.0288
rtoes 17.0179
lfemur -4.40842 3.27558 -21.2473
ltibia 26.634
lfoot -17.9286 10.7738
ltoes -10.7629
1396
root -0.805573 17.7592 -7.79212 -0.861656 22.9484 -2.70996
lowerback 3.43875 -1.51008 -6.43927
upperback 1.21011 -2.22608 -2.17811
thorax -0.521284 -1.11245 1.44416
lowerneck -20.9071 -4.65424 -10.1659
upperneck 27.1511 -4.08736 3.4922
head 12.865 -2.38412 2.3586
rclavicle -2.90226e-014 3.33958e-014
rhumerus 22.9937 -38.0188 -29.1786
rradius 38.4093
rwrist 21.8683
rhand -53.6375 -14.5936
rfingers 7.12502
rthumb -26.0763 -42.8236
lclavicle -2.90226e-014 3.33958e-014
lhumerus -26.9766 13.9396 59.0839
lradius 43.5468
lwrist -15.8425
lhand -19.7194 29.3647
lfingers 7.12502
lthumb 6.61067 59.2415
rfemur -20.3785 3.33465 15.4941
rtibia 21.8926
rfoot -2.85796 -12.0945
rtoes 17.202
lfemur -4.48584 3.20149 -21.1589
ltibia 26.7853
lfoot -17.9719 10.8338
ltoes -11.1322
1397
root -0.806792 17.7604 -7.79302 -0.86391 23.0654 -2.75566
lowerback 3.49411 -1.48622 -6.32464
upperback 1.17799 -2.19771 -2.28817
thorax -0.596373 -1.09512 1.26902
lowerneck -20.7102 -4.61826 -10.1323
upperneck 27.2436 -4.09262 3.56276
head 12.8631 -2.37659 2.38323
rclavicle 1.0963e-013 4.45278e-014
rhumerus 23.5579 -38.7494 -28.7573
rradius 38.3063
rwrist 21.1765
rhand -53.7355 -15.3521
rfingers 7.12502
rthumb -26.1701 -43.5683
lclavicle 1.0963e-013 4.45278e-014
lhumerus -27.965 14.1005 58.5408
lradius 42.6895
lwrist -16.0112
lhand -19.6966 29.6115
lfingers 7.12502
lthumb 6.63266 59.4876
rfemur -20.3121 3.23678 15.524
rtibia 21.7552
rfoot -2.86349 -12.1621
rtoes 17.5098
lfemur -4.56788 3.09777 -21.1158
ltibia 26.9108
lfoot -18.0631 10.8284
ltoes -11.2111
1398
root -0.808706 17.7605 -7.79592 -0.930387 23.1349 -2.94939
lowerback 3.56586 -1.48707 -6.09724
upperback 1.20339 -2.19625 -2.34001
thorax -0.621409 -1.09383 1.09149
lowerneck -20.6486 -4.60401 -10.0635
upperneck 27.2601 -4.11351 3.59412
head 12.8571 -2.37511 2.38134
rclavicle -3.25013e-014 -3.49861e-014
rhumerus 24.6477 -39.6588 -28.8855
rradius 38.2679
rwrist 20.8402
rhand -53.5284 -14.7001
rfingers 7.12502
rthumb -25.9718 -42.9455
lclavicle -3.25013e-014 -3.49861e-014
lhumerus -28.7411 14.4785 57.9664
lradius 41.6079
lwrist -16.1651
lhand -19.7165 29.8748
lfingers 7.12502
lthumb 6.61349 59.7515
rfemur -20.2588 3.22554 15.7128
rtibia 21.6213
rfoot -2.83878 -12.2515
rtoes 17.2502
lfemur -4.65979 3.01912 -20.9274
ltibia 27.0315
lfoot -18.0891 10.8954
ltoes -11.349
1399
root -0.811641 17.7617 -7.7987 -1.04693 23.1787 -3.14859
lowerback 3.66909 -1.49245 -5.90372
upperback 1.24126 -2.20342 -2.37326
thorax -0.648599 -1.09706 0.952836
lowerneck -20.4764 -4.58106 -9.972
upperneck 27.1602 -4.13306 3.59918
head 12.7797 -2.3733 2.36547
rclavicle -2.44505e-014 1.43125e-014
rhumerus 25.9391 -40.4396 -29.2126
rradius 38.3218
rwrist 20.651
rhand -53.3075 -13.4564
rfingers 7.12502
rthumb -25.7603 -41.7327
lclavicle -2.44505e-014 1.43125e-014
lhumerus -29.537 14.8578 57.387
lradius 40.5733
lwrist -16.3215
lhand -19.521 31.0048
lfingers 7.12502
lthumb 6.80223 60.8756
rfemur -20.1546 3.2851 15.9086
rtibia 21.4866
rfoot -2.77657 -12.3307
rtoes 17.156
lfemur -4.69835 2.93444 -20.7236
ltibia 27.1439
lfoot -18.1491 10.96
ltoes -11.2746
1400
root -0.815281 17.7607 -7.8027 -1.21529 23.162 -3.35472
lowerback 3.81882 -1.47316 -5.68019
upperback 1.26064 -2.18113 -2.40583
thorax -0.723729 -1.08423 0.798924
lowerneck -20.341 -4.56337 -9.90596
upperneck 27.2018 -4.14584 3.59803
head 12.7677 -2.37411 2.35392
rclavicle -3.16068e-014 2.8625e-014
rhumerus 27.1452 -40.9611 -29.4463
rradius 38.5247
rwrist 20.5272
rhand -53.5144 -12.9256
rfingers 7.12502
rthumb -25.9584 -41.173
lclavicle -3.16068e-014 2.8625e-014
lhumerus -30.3491 15.1412 56.8707
lradius 39.6559
lwrist -16.6171
lhand -18.8469 33.3341
lfingers 7.12502
lthumb 7.4529 63.1828
rfemur -20.0165 3.38966 16.1178
rtibia 21.3624
rfoot -2.77901 -12.428
rtoes 17.4439
lfemur -4.66747 2.93223 -20.5057
ltibia 27.2467
lfoot -18.2023 10.9654
ltoes -11.0501
1401
root -0.817455 17.7607 -7.80637 -1.27785 23.1118 -3.37743
lowerback 3.88795 -1.43959 -5.60913
upperback 1.29645 -2.13771 -2.47327
thorax -0.733168 -1.06256 0.690018
lowerneck -20.3457 -4.52662 -9.90256
upperneck 27.2977 -4.11569 3.66678
head 12.8062 -2.35267 2.38669
rclavicle -2.62396e-014 1.11319e-014
rhumerus 28.5987 -41.5777 -29.9865
rradius 38.8403
rwrist 21.0496
rhand -53.7003 -12.9243
rfingers 7.12502
rthumb -26.1364 -41.1454
lclavicle -2.62396e-014 1.11319e-014
lhumerus -31.0112 15.4922 56.3736
lradius 38.6712
lwrist -17.0445
lhand -18.0611 33.9807
lfingers 7.12502
lthumb 8.21134 63.8011
rfemur -19.9516 3.42633 16.1492
rtibia 21.3021
rfoot -2.71745 -12.4586
rtoes 17.0873
lfemur -4.64308 2.98582 -20.4816
ltibia 27.2966
lfoot -18.1836 11.024
ltoes -11.1218
1402
root -0.818435 17.7621 -7.809 -1.2644 23.0633 -3.30232
lowerback 3.87565 -1.4234 -5.65345
upperback 1.33492 -2.11485 -2.53388
thorax -0.688426 -1.05245 0.650373
lowerneck -20.3558 -4.47966 -9.92165
upperneck 27.3475 -4.05933 3.72731
head 12.8255 -2.32236 2.42402
rclavicle 1.41137e-014 -1.27222e-014
rhumerus 30.245 -42.0582 -30.6987
rradius 39.2473
rwrist 21.7974
rhand -53.5896 -12.7493
rfingers 7.12502
rthumb -26.0304 -40.9861
lclavicle 1.41137e-014 -1.27222e-014
lhumerus -31.6927 15.8201 55.9075
lradius 37.7483
lwrist -17.5302
lhand -17.4758 33.3666
lfingers 7.12502
lthumb 8.7762 63.1642
rfemur -19.9579 3.3834 16.0875
rtibia 21.3111
rfoot -2.63283 -12.4313
rtoes 17.0897
lfemur -4.62401 3.01823 -20.5653
ltibia 27.2951
lfoot -18.2308 11.0441
ltoes -11.1658
